<svg xmlns="http://www.w3.org/2000/svg" width="195" height="115" viewBox="0 0 195 115"><g fill="none" fill-rule="evenodd"><path fill="#70C8E6" d="M151.19 50.836c-.595-4.906-1.37-11.103-4.084-15.152-2.667-3.976-7.674-4.245-11.698-4.708-5.281-.608-10.603-.394-15.872.213-10.591 1.227-20.986 4.03-31.56 5.388-5.953.763-11.894.924-17.871.41-6.376-.546-12.74-1.607-19.146-1.517-4.287.053-9.496.91-11.83 5.626-1.345 2.703-1.393 5.948-.09 8.436a126.066 126.066 0 0 0 2.43 21.028c.101 1.173.28 2.351.53 3.524.226 1.066.613 2.138 1.03 3.18.422 1.6.875 3.196 1.363 4.773.673 2.161 1.262 4.865 2.536 6.68 1.423 2.024 3.786 2.411 5.87 2.989 5.108 1.423 10.341 2.495 15.604 2.656 5.936.172 11.818-1.06 17.67-2.513 3.917-.315 7.823-.81 11.716-1.447 13.39-.333 26.755-1.804 40.049-4.257 1.452.078 2.899.162 4.352.203 2.024.053 3.917-.227 5.155-2.286 1.22-2.048 1.786-4.888 2.358-7.245.22-.9.41-1.804.595-2.709.28-1.084.476-2.209.59-3.346a73.347 73.347 0 0 0 .304-19.926"/><path fill="#244288" d="M97.806 80.716c-2.328 0-4.632-.333-6.549-1.131-2.423-1.006-4.786-3.06-6.525-5.573a14.96 14.96 0 0 1-1.62-2.399c-3.006-5.584-3.06-12.597-.029-18.175 1.387-2.56 5.245-6.627 8.924-7.728 1.5-.947 3.299-1.483 5.031-1.584.226-.012.452-.018.673-.018 3.81 0 7.322 1.9 9.995 4.55 6.031 5.994 9.52 16.103 5.418 24.068-1.72 3.335-4.703 5.984-8.329 7.026-2.072.595-4.542.964-6.989.964"/><path fill="#FFFFFE" d="M106.301 72.13c-3.756-.285-7.12-1.672-9.954-4.047 1.941-1.107 3.037-3.441 3.572-5.894a38.572 38.572 0 0 0 4.06-.75c1.114-.268.644-1.989-.476-1.72a34.77 34.77 0 0 1-3.28.624c.155-1.37.16-2.685.06-3.762-.042-.447-.34-.715-.68-.816 1.775.024 3.513-.16 5.103-1.203.958-.63.065-2.178-.899-1.542-4.036 2.644-9.293-.452-13.49 2.132-.977.601-.084 2.144.899 1.542 2.393-1.47 5.15-1.03 7.858-.94-.345.082-.62.357-.577.827a19.041 19.041 0 0 1-.09 3.977 36.715 36.715 0 0 1-4.733.125c-1.149-.048-1.143 1.738 0 1.786 1.477.054 2.941.024 4.394-.09-.548 2.18-1.637 4.108-3.638 4.53-.666.138-.857 1.043-.393 1.495 3.388 3.292 7.555 5.156 12.264 5.513 1.15.09 1.144-1.697 0-1.786"/><path fill="#469BC9" d="M140.897 48.9a198.4 198.4 0 0 0-18.087 1.853c-1.13.167-.649 1.886.477 1.72a196.204 196.204 0 0 1 17.61-1.786c1.143-.065 1.149-1.851 0-1.786m-17.503 10.376c-1.03-.005-.983-1.678.113-1.797a270.228 270.228 0 0 1 18.062-1.328h.042c1.108 0 1.09 1.745-.042 1.786a270.008 270.008 0 0 0-18.175 1.339m1.357 7.407c-1.012 0-.958-1.66.125-1.792a254.72 254.72 0 0 0 12.151-1.81.91.91 0 0 1 .179-.018c1 0 1.369 1.554.297 1.738-4.19.733-8.4 1.352-12.627 1.876-.048.006-.09.006-.125.006m-68.309-8.972c-.995 0-1.358-1.542-.292-1.738a85.878 85.878 0 0 1 15.604-1.441c1.494 0 3 .041 4.5.119 1.132.06 1.15 1.786.06 1.786h-.06a89.155 89.155 0 0 0-4.542-.12c-5.06 0-10.09.453-15.086 1.376a1.017 1.017 0 0 1-.184.018m-1.572 8.126c-1 0-1.37-1.553-.304-1.738a107.853 107.853 0 0 1 18.307-1.607c1.15 0 1.15 1.786 0 1.786-5.995.012-11.925.517-17.83 1.547-.06.006-.12.012-.173.012m5.703 7.032c-1.065 0-1.232-1.936-.119-2.042 2.798-.268 4.56-.501 6.948-.769 1.947-.226 4.161-.369 6.108-.63.048-.007.09-.007.131-.007 1.006 0 .947 1.65-.13 1.792-4.21.56-8.175 1.215-12.848 1.655h-.09"/><path d="M25.707 49.546c-7.379.225-14.366-1.032-21.224-3.739-4.161-1.642-5.967 5.07-1.848 6.697 7.4 2.92 15.122 4.229 23.072 3.986 4.462-.136 4.482-7.082 0-6.944M152.74 21.285c3.1-6.14 6.204-12.278 9.304-18.417 2.017-3.99 8.015-.477 6.003 3.506l-9.305 18.415c-2.015 3.99-8.014.479-6.002-3.504M34.137 95.106c-6.019 4.683-12.037 9.366-18.053 14.05-3.531 2.746 1.393 7.655 4.882 4.941 6.018-4.685 12.037-9.367 18.054-14.05 3.529-2.746-1.396-7.655-4.883-4.94m125.494-5.077c6.404 4.14 12.807 8.282 19.209 12.423 3.757 2.427-.721 7.747-4.434 5.348-6.402-4.143-12.807-8.283-19.209-12.424-3.755-2.427.723-7.747 4.434-5.347m31.435-34.924c-7.378.225-14.365-1.031-21.224-3.738-4.16-1.643-5.967 5.07-1.847 6.697 7.399 2.919 15.122 4.228 23.071 3.985 4.463-.136 4.483-7.081 0-6.944M41.38 20.174c-3.1-6.14-6.203-12.278-9.303-18.417-2.018-3.99-8.015-.477-6.003 3.506 3.101 6.138 6.203 12.278 9.305 18.414 2.014 3.99 8.013.48 6.002-3.503" fill="#FFC333"/></g></svg>